<svg width="21" height="25" viewBox="0 0 21 25" fill="none" xmlns="http://www.w3.org/2000/svg">
<path d="M1.5 19.5H2.925L12.7 9.725L11.275 8.3L1.5 18.075V19.5ZM-0.5 21.5V17.25L12.7 4.075C12.9 3.89167 13.1208 3.75 13.3625 3.65C13.6042 3.55 13.8583 3.5 14.125 3.5C14.3917 3.5 14.65 3.55 14.9 3.65C15.15 3.75 15.3667 3.9 15.55 4.1L16.925 5.5C17.125 5.68333 17.2708 5.9 17.3625 6.15C17.4542 6.4 17.5 6.65 17.5 6.9C17.5 7.16667 17.4542 7.42083 17.3625 7.6625C17.2708 7.90417 17.125 8.125 16.925 8.325L3.75 21.5H-0.5ZM11.975 9.025L11.275 8.3L12.7 9.725L11.975 9.025Z" fill="black"/>
</svg>
